<svg width="14" height="13" viewBox="0 0 14 13" fill="none" xmlns="http://www.w3.org/2000/svg">
<path d="M4.07695 1.52188L3.79258 2.375H1.75C0.784766 2.375 0 3.15977 0 4.125V11.125C0 12.0902 0.784766 12.875 1.75 12.875H12.25C13.2152 12.875 14 12.0902 14 11.125V4.125C14 3.15977 13.2152 2.375 12.25 2.375H10.2074L9.92305 1.52188C9.74531 0.985938 9.24492 0.625 8.67891 0.625H5.32109C4.75508 0.625 4.25469 0.985938 4.07695 1.52188ZM7 5C7.69619 5 8.36387 5.27656 8.85616 5.76884C9.34844 6.26113 9.625 6.92881 9.625 7.625C9.625 8.32119 9.34844 8.98887 8.85616 9.48116C8.36387 9.97344 7.69619 10.25 7 10.25C6.30381 10.25 5.63613 9.97344 5.14384 9.48116C4.65156 8.98887 4.375 8.32119 4.375 7.625C4.375 6.92881 4.65156 6.26113 5.14384 5.76884C5.63613 5.27656 6.30381 5 7 5Z" fill="white"/>
</svg>
